<svg width="64" height="64" viewBox="0 0 64 64" fill="none" xmlns="http://www.w3.org/2000/svg">
<path d="M35.8 18.82C35.7803 18.723 35.7408 18.6311 35.684 18.55C35.6272 18.469 35.5543 18.4005 35.4698 18.3489C35.3854 18.2973 35.2912 18.2636 35.1931 18.25C35.0951 18.2365 34.9953 18.2433 34.9 18.27C34.48 18.37 34.08 19.12 34.72 19.46C34.8311 19.5207 34.9561 19.5515 35.0827 19.5492C35.2093 19.547 35.3332 19.5119 35.4421 19.4474C35.5511 19.3828 35.6413 19.291 35.7041 19.181C35.7668 19.071 35.7999 18.9466 35.8 18.82ZM24 17.93C24.06 17.71 23.53 15.4 23.5 15.15C23.47 14.9 23.15 15.15 22.97 15.25C22.9474 16.1727 23.0279 17.0951 23.21 18C23.21 18 24 18.15 24 17.93ZM20.65 21.28C21.4086 20.7882 22.1931 20.3376 23 19.93C23.22 19.84 23.75 21.78 23.75 21.78C24.0599 21.7037 24.3614 21.5965 24.65 21.46C24.5497 20.5506 24.2962 19.6647 23.9 18.84C23.224 18.8628 22.5628 19.0443 21.97 19.37C21.2337 19.7698 20.5599 20.2751 19.97 20.87C19.97 20.87 20.09 21.65 20.09 21.65C20.2983 21.5519 20.4932 21.4275 20.67 21.28H20.65ZM35.84 14.09C36.75 14.25 38 14.71 38.12 14.62C38.24 14.53 38.12 14.21 38.06 14.06C38 13.91 37.59 13.62 36.4 13.37C35.6219 13.1899 34.8282 13.0861 34.03 13.06C33.9 13.06 34.22 13.84 34.31 13.93C34.4 14.02 35 13.93 35.86 14.09H35.84ZM40.62 19.18C40.75 19.18 40.56 18.56 40.47 18.37C39.8863 18.1041 39.2598 17.9449 38.62 17.9C38.62 17.9 38.62 18.59 38.78 18.75C39.3824 18.961 40.0061 19.1052 40.64 19.18H40.62ZM39.06 20.37C39.6542 20.5874 40.2717 20.7351 40.9 20.81C41.03 20.81 40.84 20.18 40.75 20C40.1663 19.7341 39.5398 19.5749 38.9 19.53C38.9 19.53 38.92 20.21 39.08 20.37H39.06ZM20.64 43.65C20.781 43.9958 20.9013 44.3498 21 44.71C21 44.87 19.68 45.43 19.81 45.87C20.6354 47.5843 22.0575 48.9389 23.81 49.68C24.4607 49.9304 25.1672 49.9994 25.8541 49.8797C26.541 49.7599 27.1824 49.4558 27.71 49C27.608 48.3761 27.4711 47.7585 27.3 47.15L28.42 46.68C28.42 46.68 29.21 48.34 29.33 48.47C29.45 48.6 31.05 48.25 32.77 46.03C33.3138 45.2708 33.6919 44.4057 33.8797 43.4909C34.0674 42.5761 34.0607 41.632 33.86 40.72C33.77 40.43 31.77 40.72 31.77 40.72L31.05 39.51C31.05 39.51 32.05 38.35 32.11 38.26C32.17 38.17 32 36.5 29.36 35.46C28.5798 35.1011 27.7217 34.9449 26.8651 35.0061C26.0085 35.0673 25.1812 35.3438 24.46 35.81C24.11 36.12 24.64 36.96 24.67 37.06C24.7 37.16 23.67 37.68 23.58 37.62C23.3987 37.2678 23.2416 36.9036 23.11 36.53C23.02 36.37 21.46 36.78 19.77 39.25C19.2721 39.8748 18.9487 40.6204 18.8328 41.4109C18.7168 42.2014 18.8125 43.0085 19.11 43.75C19.14 43.9 20.64 43.65 20.64 43.65ZM20.64 40.03C21.17 39.03 21.89 37.96 22.36 37.81C22.36 37.81 23.02 38.87 23.21 38.9C24.1247 38.6873 25.0062 38.3509 25.83 37.9C25.8442 37.3438 25.7803 36.7884 25.64 36.25C26.1193 36.0209 26.6438 35.902 27.175 35.902C27.7062 35.902 28.2307 36.0209 28.71 36.25C30.46 37.03 30.58 37.81 30.58 37.81C30.58 37.81 29.58 39.18 29.67 39.31C29.76 39.44 31.17 41.72 31.17 41.72C31.7788 41.7151 32.3871 41.7552 32.99 41.84C33.0096 42.9926 32.6591 44.1212 31.99 45.06C31.4737 45.9299 30.7396 46.6503 29.86 47.15C29.86 47.15 29.08 45.65 28.86 45.65C28.64 45.65 26.27 46.4 26.27 46.75C26.27 47.1 26.55 48.81 26.55 48.81C25.9373 49.0283 25.2738 49.0613 24.6424 48.9048C24.011 48.7483 23.4398 48.4093 23 47.93C21.15 46.25 20.9 46.03 21.15 45.93C21.4 45.83 22.34 45.18 22.34 44.93C22.1829 44.2098 21.9757 43.5014 21.72 42.81C21.65 42.71 19.87 42.81 19.84 42.71C19.9567 41.769 20.2269 40.8535 20.64 40V40.03ZM29.33 42.37C29.4015 41.8723 29.3304 41.3646 29.1251 40.9056C28.9198 40.4467 28.5886 40.0553 28.1699 39.7769C27.7513 39.4985 27.2623 39.3444 26.7596 39.3326C26.257 39.3207 25.7613 39.4516 25.33 39.71C24.46 40.18 23.46 40.81 24.05 43.34C24.64 45.87 29.24 45 29.33 42.37ZM25.88 40.71C26.1311 40.5625 26.4187 40.4888 26.7098 40.4973C27.0009 40.5058 27.2837 40.596 27.5258 40.7578C27.7679 40.9196 27.9596 41.1463 28.0788 41.412C28.1981 41.6777 28.2401 41.9715 28.2 42.26C28.15 43.8 25.48 44.31 25.13 42.83C24.78 41.35 25.37 41 25.88 40.71ZM50.66 33.59C49 29.17 41.66 25.01 41.66 25.01L43 23.42C43 23.42 44.33 21.59 42.5 16.63C40.67 11.67 37 10.3 37 10.3C37 10.3 37 2.99998 36.83 2.75998C36.66 2.51998 32.75 2.91998 32.62 3.08998C32.49 3.25998 33.12 9.08998 33.12 9.08998C32.7508 9.00893 32.3766 8.95214 32 8.91998L30.71 8.79998C30.6528 7.8698 30.4986 6.94814 30.25 6.04998C30 5.70998 27.25 6.45998 27.12 6.70998C27.1609 7.55696 27.3019 8.39613 27.54 9.20998C27.54 9.20998 20.83 11.51 18.21 16.76C17.4564 18.2969 17.1137 20.0027 17.2154 21.7114C17.317 23.4201 17.8595 25.0733 18.79 26.51C12.16 31.13 11.08 42.38 12.46 47.05C13.84 51.72 18.58 60.46 30 61.26C41.42 62.06 47 55.67 50 50.38C53 45.09 52.33 38 50.66 33.59ZM45.66 30.37C45.91 30.46 47.51 32.03 47.32 32.09C47.13 32.15 42.45 33.28 39.04 31.09C35.63 28.9 34.63 26.31 34.79 25.21C35.2668 25.2486 35.7389 25.3323 36.2 25.46C36.5462 26.3868 37.0802 27.2321 37.7685 27.9428C38.4569 28.6535 39.2847 29.2143 40.2 29.59C41.9334 30.2887 43.8104 30.5564 45.67 30.37H45.66ZM33.79 19.71C33.6602 19.5491 33.5692 19.3606 33.5238 19.1589C33.4784 18.9573 33.4799 18.7479 33.5282 18.547C33.5765 18.346 33.6703 18.1588 33.8024 17.9998C33.9345 17.8408 34.1013 17.7143 34.29 17.63C34.557 17.5321 34.845 17.5059 35.1253 17.5538C35.4057 17.6017 35.6686 17.7221 35.888 17.9031C36.1074 18.084 36.2756 18.3193 36.3759 18.5854C36.4763 18.8515 36.5053 19.1392 36.46 19.42C36.12 20.51 34.12 20.3 33.79 19.71ZM41.71 27C43.86 28.15 44.3 29.18 44.3 29.18C42.8401 29.406 41.3482 29.0855 40.11 28.28C39.0515 27.6835 38.2266 26.7458 37.77 25.62C39.1551 25.8415 40.4894 26.3089 41.71 27ZM34 3.83998C34.12 3.71998 35.75 3.45998 35.75 3.74998C35.75 4.03998 35.93 9.83998 35.75 9.74998C35.2628 9.63988 34.7821 9.503 34.31 9.33998C34.27 9.20998 33.89 3.89998 34 3.83998ZM28.3 7.52998C28.46 7.42998 29.39 7.02998 29.46 7.24998C29.53 7.46998 29.8 8.83998 29.64 8.83998H28.55C28.55 8.83998 28.14 7.61998 28.3 7.52998ZM20.79 16.17C23.46 12.26 26.79 10.67 31.66 10.76C36.53 10.85 39.29 13.46 40.29 16.3C41.29 19.14 41.79 22.3 41.54 22.51C41.29 22.72 40.66 22.34 39.41 21.8C38.5287 21.4181 37.6274 21.0843 36.71 20.8C36.71 20.8 38.66 19.09 37 17.3C35.34 15.51 32.37 16.92 32 18.17C31.63 19.42 32.83 20.76 32.83 20.76C30.2725 20.4368 27.6748 20.7813 25.29 21.76C23.4188 22.4795 21.6178 23.37 19.91 24.42C19.4231 23.0678 19.2493 21.6229 19.4018 20.1938C19.5542 18.7648 20.0288 17.389 20.79 16.17ZM15.3 47C15.0446 47.1694 14.8211 47.3827 14.64 47.63C14.2079 46.3052 13.9458 44.9308 13.86 43.54C13.86 41.82 13.86 40 14.21 39.47C14.2225 39.5887 14.2748 39.6997 14.3583 39.785C14.4418 39.8703 14.5516 39.9249 14.67 39.94C15.0203 39.9536 15.3673 39.8669 15.67 39.69C15.263 40.9816 15.1169 42.3413 15.24 43.69C15.4436 44.8173 15.7447 45.9248 16.14 47C16.0069 46.9444 15.8642 46.9158 15.72 46.9158C15.5758 46.9158 15.433 46.9444 15.3 47ZM21.42 55C21.27 54.9 21.42 54.5 21.58 54.4C21.74 54.3 22.02 54.68 21.83 54.87C21.64 55.06 21.58 55.09 21.42 55ZM37.36 58.46C37.1323 58.6004 36.8911 58.7177 36.64 58.81C36.64 58.81 34 55.46 33.83 55.46C33.66 55.46 33.3 55.84 33.33 55.93C34.2305 56.9048 35.0751 57.9298 35.86 59C35.67 59.06 34.27 59.12 34.27 59.12C33.6528 58.4056 32.9844 57.7371 32.27 57.12C32.08 57.12 31.61 57.65 31.71 57.81C31.81 57.97 33.11 59.12 32.93 59.22C32.3154 59.2821 31.6973 59.3021 31.08 59.28C31.08 59.28 30.89 58.5 30.61 58.47C30.3584 58.4564 30.1062 58.4766 29.86 58.53C29.86 58.53 29.86 59.25 29.77 59.25C28.0136 59.2896 26.2718 58.9234 24.68 58.18C23.5248 57.6865 22.4807 56.9655 21.61 56.06C21.61 56.06 23.18 55.31 22.8 54.47C22.42 53.63 21.8 53.28 21.24 53.4C20.68 53.52 20.24 55.12 20.24 55.12C19.0779 54.3203 18.0629 53.3257 17.24 52.18C16.5361 51.3353 15.9662 50.3876 15.55 49.37C15.8375 49.3237 16.1014 49.183 16.3 48.97C16.5141 48.7667 16.6843 48.5216 16.8 48.25C18.1358 50.1343 20.1124 51.4675 22.36 52C26.36 53.18 29.67 52.87 32.55 50.84C35.43 48.81 38.21 43.78 37.17 39.34C36.7178 37.5482 35.7968 35.9091 34.5015 34.591C33.2063 33.273 31.5836 32.3234 29.8 31.84C26.5174 31.4006 23.1811 32.0467 20.3 33.68C18.8145 34.8502 17.5192 36.2434 16.46 37.81C15.9566 37.6855 15.4648 37.5182 14.99 37.31C14.89 37.22 15.77 32.03 17.89 29.93C20.01 27.83 25 23.43 32.52 24.9C32.7 24.9 32.77 30.43 38.21 32.5C41.4538 33.6845 44.9309 34.0887 48.36 33.68C48.7996 34.5538 49.0966 35.4923 49.24 36.46C49.14 36.62 47.74 36.62 47.67 37.4C47.6 38.18 48.14 38.93 48.52 38.9C48.9137 38.8253 49.299 38.7114 49.67 38.56L49.83 39.78C48.3843 39.6163 46.9208 39.8328 45.5844 40.4081C44.248 40.9834 43.0849 41.8974 42.21 43.06C40.1925 45.7914 38.6291 48.8304 37.58 52.06C37.4586 52.5442 37.3651 53.035 37.3 53.53C37.3 53.53 36.3 51.84 36.05 51.93C35.8 52.02 35.3 52.12 35.46 52.34L37.46 55.22C37.4979 55.7107 37.568 56.1984 37.67 56.68C37.8 57.09 38.17 58 38.17 58C38.17 58 35.08 53.34 34.86 53.43C34.64 53.52 34.27 53.87 34.3 54.03C34.33 54.19 37.52 58.34 37.36 58.46ZM25.86 33.31C29.86 32.76 34.55 34.15 35.3 40.31C35.6332 42.531 35.1488 44.7976 33.9367 46.6883C32.7247 48.5791 30.8673 49.9655 28.71 50.59C25.71 51.47 20.11 50.65 18.17 46.28C17.6208 44.9273 17.3918 43.4661 17.5009 42.0103C17.6099 40.5545 18.0541 39.1437 18.7986 37.888C19.5431 36.6322 20.5679 35.5656 21.7928 34.7715C23.0178 33.9773 24.4097 33.4772 25.86 33.31ZM49.27 46.71C49.1619 47.2545 48.9588 47.7758 48.67 48.25C48.67 48.25 46.99 46.31 46.77 46.37C46.55 46.43 46.17 46.87 46.3 47.06C46.43 47.25 48.3 48.68 48.21 48.9C48.12 49.12 47.8 49.96 47.71 49.9C47.62 49.84 46.14 48.28 45.92 48.31C45.7 48.34 45.24 48.72 45.36 48.9C45.48 49.08 47.49 50.53 47.24 50.9L46.86 51.43C46.3216 50.8024 45.7257 50.2266 45.08 49.71C44.8417 49.932 44.6954 50.2353 44.67 50.56C44.74 50.71 46.24 52.09 46.14 52.21C46.04 52.33 45.92 52.68 45.8 52.65C45.68 52.62 44.71 51.59 44.58 51.65C44.45 51.71 44.11 52.4 44.27 52.56C44.43 52.72 45.14 53.22 45.14 53.37C44.6823 53.9601 44.17 54.5059 43.61 55C43.2966 53.8064 43.2289 52.5616 43.4112 51.3412C43.5934 50.1207 44.0216 48.9499 44.67 47.9C45.5444 46.4506 46.6724 45.1702 48 44.12C48.5336 43.8163 49.1154 43.6066 49.72 43.5C49.6611 44.5808 49.5105 45.6546 49.27 46.71ZM49.83 42.53C48.7636 42.6001 47.7312 42.9337 46.8254 43.5009C45.9196 44.0682 45.1687 44.8512 44.64 45.78C43.1512 47.8809 42.2407 50.3363 42 52.9C42 53.9 42.5 55.96 42.31 56.09C41.6401 56.4406 40.9408 56.7317 40.22 56.96C39.7089 55.5506 39.5 54.0494 39.6068 52.554C39.7136 51.0586 40.1338 49.6024 40.84 48.28C42.2445 45.3791 44.5928 43.0414 47.5 41.65C48.2815 41.4952 49.0739 41.4016 49.87 41.37L49.83 42.53ZM29.24 54.71C28.8 55.31 28.3 56.43 29.71 56.93C29.956 57.0403 30.2296 57.0737 30.495 57.0261C30.7604 56.9784 31.0052 56.8518 31.1975 56.6627C31.3898 56.4737 31.5205 56.2311 31.5727 55.9665C31.6249 55.702 31.5961 55.4279 31.49 55.18C31.4054 54.9688 31.27 54.7817 31.0957 54.6355C30.9214 54.4893 30.7137 54.3884 30.491 54.3419C30.2683 54.2954 30.0375 54.3046 29.8193 54.3689C29.601 54.4331 29.402 54.5503 29.24 54.71ZM30 56.17C29.45 55.97 29.64 55.53 29.82 55.29C29.8848 55.2279 29.9638 55.1826 30.0502 55.1581C30.1365 55.1335 30.2275 55.1305 30.3153 55.1492C30.4031 55.168 30.4849 55.2079 30.5537 55.2656C30.6225 55.3232 30.6762 55.3968 30.71 55.48C30.7523 55.5786 30.7638 55.6877 30.7428 55.7929C30.7218 55.8981 30.6693 55.9945 30.5924 56.0693C30.5155 56.1441 30.4176 56.1937 30.3118 56.2117C30.2061 56.2297 30.0973 56.2151 30 56.17ZM21 29.34C20.56 29.93 20.06 31.06 21.47 31.56C21.716 31.6703 21.9896 31.7037 22.255 31.6561C22.5204 31.6084 22.7652 31.4818 22.9575 31.2927C23.1498 31.1037 23.2805 30.8611 23.3327 30.5965C23.3849 30.332 23.3561 30.0579 23.25 29.81C23.1654 29.5988 23.03 29.4117 22.8557 29.2655C22.6814 29.1193 22.4737 29.0184 22.251 28.9719C22.0283 28.9254 21.7975 28.9346 21.5793 28.9989C21.361 29.0631 21.162 29.1803 21 29.34ZM30.4 28.74C30.06 29.2 29.67 30.07 30.76 30.46C30.9502 30.5745 31.1731 30.6225 31.3936 30.5964C31.6141 30.5702 31.8197 30.4715 31.9778 30.3156C32.136 30.1597 32.2378 29.9557 32.2671 29.7356C32.2965 29.5155 32.2518 29.2918 32.14 29.1C32.0726 28.941 31.9677 28.8007 31.8344 28.6911C31.701 28.5815 31.5431 28.5057 31.3741 28.4704C31.2051 28.435 31.0301 28.4411 30.8639 28.488C30.6978 28.5349 30.5455 28.6214 30.42 28.74H30.4ZM38.61 35.62C38.8002 35.7394 39.0251 35.7913 39.2484 35.7673C39.4717 35.7433 39.6804 35.6448 39.841 35.4878C40.0015 35.3307 40.1045 35.1242 40.1333 34.9014C40.1622 34.6787 40.1152 34.4528 40 34.26C39.9343 34.0955 39.8288 33.95 39.693 33.8363C39.5572 33.7227 39.3954 33.6445 39.2219 33.6088C39.0485 33.5731 38.8689 33.581 38.6992 33.6319C38.5296 33.6827 38.3752 33.7748 38.25 33.9C37.92 34.36 37.54 35.23 38.63 35.62H38.61ZM36.61 49.84C36.8002 49.9594 37.0251 50.0113 37.2484 49.9873C37.4717 49.9633 37.6804 49.8648 37.841 49.7078C38.0015 49.5507 38.1045 49.3442 38.1333 49.1214C38.1622 48.8987 38.1152 48.6728 38 48.48C37.9343 48.3155 37.8288 48.17 37.693 48.0563C37.5572 47.9427 37.3954 47.8645 37.2219 47.8288C37.0485 47.7931 36.8689 47.801 36.6992 47.8519C36.5296 47.9027 36.3752 47.9948 36.25 48.12C35.92 48.58 35.54 49.45 36.63 49.84H36.61ZM38.72 37.53C38.28 38.12 37.78 39.25 39.19 39.75C39.4372 39.8701 39.7153 39.9113 39.9867 39.8681C40.2581 39.8248 40.5096 39.6992 40.7072 39.5081C40.9047 39.3171 41.0388 39.07 41.0912 38.8002C41.1435 38.5304 41.1117 38.2511 41 38C40.9181 37.7851 40.7835 37.5942 40.6085 37.4451C40.4335 37.2959 40.2238 37.1931 39.9986 37.1463C39.7735 37.0995 39.5402 37.1101 39.3202 37.1771C39.1003 37.2442 38.9007 37.3655 38.74 37.53H38.72ZM40.18 38.29C40.2223 38.3886 40.2338 38.4977 40.2128 38.6029C40.1918 38.7081 40.1393 38.8045 40.0624 38.8793C39.9855 38.9541 39.8876 39.0037 39.7818 39.0217C39.6761 39.0397 39.5673 39.0251 39.47 38.98C38.92 38.79 39.11 38.34 39.29 38.1C39.3546 38.0334 39.4349 37.9842 39.5236 37.957C39.6123 37.9298 39.7065 37.9254 39.7973 37.9444C39.8881 37.9634 39.9727 38.005 40.0431 38.0654C40.1135 38.1258 40.1675 38.2031 40.2 38.29H40.18ZM45.18 39.29C45.45 38.34 44.66 37.5 43.89 37.84C43.12 38.18 42.27 38.84 42.96 39.84C43.65 40.84 44.91 40.24 45.18 39.29ZM44 38.59C44.3 38.45 44.62 38.79 44.51 39.16C44.4 39.53 43.91 39.83 43.63 39.4C43.35 38.97 43.71 38.7 44 38.59ZM46.77 36.59C46.9662 36.5364 47.1431 36.428 47.28 36.2774C47.4168 36.1269 47.5079 35.9404 47.5425 35.7399C47.5771 35.5395 47.5539 35.3333 47.4755 35.1455C47.3971 34.9578 47.2669 34.7963 47.1 34.68C46.48 34.36 45.32 34.02 44.91 35.24C44.5 36.46 45.82 37 46.73 36.63L46.77 36.59ZM45.69 35.42C45.85 34.94 46.31 35.07 46.56 35.2C46.81 35.33 46.79 35.8 46.43 35.96C46.07 36.12 45.49 35.94 45.65 35.46L45.69 35.42ZM27.29 17.59C27.8072 17.8725 28.3894 18.0148 28.9786 18.0029C29.5679 17.991 30.1438 17.8251 30.6491 17.5219C31.1545 17.2187 31.5718 16.7886 31.8597 16.2743C32.1475 15.76 32.2958 15.1793 32.29 14.59C32.12 12.84 30.11 11.59 28.08 12.05C26.05 12.51 24.29 16 27.29 17.59ZM28.43 13.06C28.7218 12.975 29.028 12.9515 29.3293 12.9908C29.6306 13.03 29.9205 13.1313 30.1808 13.2882C30.441 13.4451 30.666 13.6542 30.8414 13.9024C31.0168 14.1505 31.1389 14.4323 31.2 14.73C31.2118 15.1233 31.1188 15.5127 30.9307 15.8582C30.7425 16.2038 30.4658 16.4931 30.1291 16.6966C29.7923 16.9001 29.4075 17.0104 29.014 17.0163C28.6206 17.0222 28.2327 16.9234 27.89 16.73C25.91 15.66 27.15 13.36 28.43 13.06Z" fill="white"/>
</svg>
